<svg xmlns="http://www.w3.org/2000/svg" viewBox="-1.8600006103515625 106.388916 578.7200012207031 324.882320400541"> <svg xmlns="http://www.w3.org/2000/svg" xmlns:xlink="http://www.w3.org/1999/xlink" version="1.1" id="Layer_1" x="232.1704974122294" y="176.388916" viewBox="2.40000057220459 2.299999952316284 88.73749542236328 89.09999084472656" xml:space="preserve" height="111.11111746993382" width="110.65900517554118" preserveAspectRatio="xMinYMin" enable-background="new 0 0 93.5 93.5" style="overflow: visible;"><path class="st509" d="M57.7,56.4c1.2-1.2,1.8-3.1,1.4-5c-0.5-2-2.1-3.6-4.1-4c-3.5-0.7-6.6,1.9-6.6,5.3c0,1.5,0.6,2.8,1.5,3.8   H37.4l0-12.6c-1.2,1.2-3.1,1.8-5,1.4c-2-0.5-3.6-2.1-4-4.1c-0.7-3.5,1.9-6.6,5.3-6.6c1.5,0,2.8,0.6,3.8,1.5V23.5H10.1   c-3.1,0-5.7,2.5-5.7,5.7v54.5c0,3.1,2.5,5.7,5.7,5.7h27.2h27.2c3.1,0,5.7-2.5,5.7-5.7V56.4H57.7z" style="fill: #0891B2; fill-opacity: 1;"></path><path class="st236" d="M54.7,37.5c-0.1-1.7,0.6-3.5,2.2-4.8c1.6-1.2,3.9-1.4,5.7-0.5c3.2,1.7,3.8,5.7,1.6,8.3   c-0.9,1.1-2.3,1.8-3.6,1.9l9.6,8.1l17.5-20.9c2-2.4,1.7-6-0.7-8L66.2,4.3l-8.1,9.6c-0.2-1.7-1.2-3.4-3-4.3   c-1.8-0.9-4.1-0.7-5.7,0.5c-2.8,2.2-2.8,6.3-0.2,8.4c1.1,0.9,2.5,1.4,3.9,1.2L45,29.5L54.7,37.5z" style="fill: #06B6D4; fill-opacity: 1;"></path><path class="st0" d="M70.2,52.6c-0.5,0-0.9-0.2-1.3-0.5L59.3,44c-0.6-0.5-0.9-1.4-0.6-2.1c0.2-0.8,0.9-1.3,1.7-1.4   c0.9-0.1,1.7-0.5,2.3-1.2c0.7-0.8,0.9-1.8,0.7-2.8c-0.2-1-0.8-1.9-1.8-2.4c-1.1-0.6-2.6-0.5-3.6,0.3c-1,0.7-1.5,1.8-1.4,3   c0.1,0.8-0.4,1.6-1.1,1.9c-0.7,0.4-1.6,0.3-2.2-0.2L43.8,31c-0.4-0.3-0.7-0.8-0.7-1.4c0-0.5,0.1-1.1,0.5-1.5l5.9-7.1   c-0.5-0.3-1-0.6-1.5-1c-1.7-1.4-2.7-3.6-2.6-5.8c0-2.2,1.1-4.3,2.9-5.7c2.2-1.8,5.3-2.1,7.9-0.7c1.1,0.6,2,1.3,2.6,2.3l6-7.1   C65,2.6,65.5,2.3,66,2.3c0.5,0,1.1,0.1,1.5,0.5l20.9,17.5c1.6,1.3,2.5,3.2,2.7,5.2s-0.4,4-1.8,5.6L71.8,51.9   c-0.3,0.4-0.8,0.7-1.4,0.7C70.4,52.6,70.3,52.6,70.2,52.6z M64.4,43.1l5.6,4.7l16.2-19.3c0.6-0.8,0.9-1.7,0.8-2.7s-0.5-1.9-1.3-2.5   L66.4,7.1l-6.8,8.1c-0.5,0.6-1.4,0.9-2.1,0.6c-0.8-0.2-1.3-0.9-1.4-1.7c-0.1-1.2-0.8-2.2-1.9-2.7c-1.1-0.6-2.6-0.4-3.6,0.3   c-0.9,0.7-1.3,1.6-1.4,2.7c0,1,0.4,2,1.2,2.7c0.7,0.6,1.5,0.9,2.4,0.8c0.8-0.1,1.6,0.4,1.9,1.1s0.3,1.6-0.2,2.2l-6.8,8.1l5.6,4.7   c0.5-1,1.3-2,2.2-2.7c2.3-1.7,5.4-2,7.9-0.6c2,1.1,3.4,3,3.8,5.2s-0.2,4.5-1.6,6.2C65.4,42.4,64.9,42.8,64.4,43.1z" style="fill: #64748B; fill-opacity: 1;"></path><path class="st0" d="M70.3,54.4H61c0.3-1.1,0.3-2.3,0-3.5c-0.6-2.8-2.8-5-5.6-5.5c-2.2-0.5-4.5,0.1-6.3,1.5   c-1.7,1.4-2.7,3.5-2.7,5.8c0,0.6,0.1,1.2,0.2,1.8h-7.3V43.8c0-0.8-0.5-1.5-1.2-1.8c-0.7-0.3-1.6-0.1-2.2,0.4   c-0.8,0.8-2,1.2-3.2,0.9c-1.2-0.3-2.2-1.3-2.5-2.5c-0.2-1.1,0-2.1,0.7-2.9c0.7-0.8,1.6-1.3,2.6-1.3c0.9,0,1.7,0.3,2.4,1   c0.6,0.6,1.4,0.7,2.2,0.4c0.7-0.3,1.2-1,1.2-1.8V23.5c0-1.1-0.9-2-2-2H10.1c-4.2,0-7.7,3.4-7.7,7.7v54.5c0,4.2,3.4,7.7,7.7,7.7   h54.5c4.2,0,7.7-3.4,7.7-7.7V56.4C72.3,55.3,71.4,54.4,70.3,54.4z M10.1,25.5h25.2v7.3c-0.6-0.1-1.2-0.2-1.8-0.2   c-2.2,0-4.3,1-5.8,2.7s-2,4-1.5,6.3c0.6,2.8,2.8,5,5.5,5.6c1.2,0.3,2.4,0.2,3.5,0v7.3H24.8c-0.8,0-1.5,0.5-1.8,1.2   c-0.3,0.7-0.1,1.6,0.4,2.2c0.8,0.8,1.1,2,0.9,3.2c-0.3,1.2-1.3,2.2-2.6,2.5c-1.1,0.2-2.1,0-2.9-0.7c-0.8-0.7-1.3-1.6-1.3-2.6   c0-0.9,0.3-1.7,1-2.4c0.6-0.6,0.7-1.4,0.4-2.2c-0.3-0.7-1-1.2-1.8-1.2H6.5V29.2C6.5,27.1,8.1,25.5,10.1,25.5z M36.6,74.9   c-0.7,0.3-1.2,1-1.2,1.8v10.6H10.1c-2,0-3.7-1.6-3.7-3.7V58.4h7.3c-0.1,0.6-0.2,1.2-0.2,1.8c0,2.2,1,4.3,2.7,5.8   c1.7,1.4,4,2,6.3,1.5c2.8-0.6,5-2.8,5.6-5.5c0.3-1.2,0.2-2.4,0-3.5h7.3V69c0,0.8,0.5,1.5,1.2,1.8c0.7,0.3,1.6,0.1,2.2-0.4   c0.8-0.8,2-1.1,3.2-0.9c1.2,0.3,2.2,1.3,2.5,2.6c0.2,1.1,0,2.1-0.7,2.9c-0.7,0.8-1.6,1.3-2.6,1.3c-0.9,0-1.7-0.3-2.4-1   C38.2,74.7,37.3,74.6,36.6,74.9z M68.3,83.6c0,2-1.6,3.7-3.7,3.7H39.4V80c0.6,0.1,1.2,0.2,1.8,0.2c2.2,0,4.3-1,5.8-2.7   c1.4-1.7,2-4,1.5-6.3c-0.6-2.8-2.8-5-5.5-5.6c-1.2-0.3-2.4-0.2-3.5,0v-7.3H50c0.8,0,1.5-0.5,1.8-1.2c0.3-0.7,0.1-1.6-0.4-2.2   c-0.6-0.6-1-1.5-1-2.4c0-1,0.5-2,1.3-2.6c0.8-0.7,1.8-0.9,2.9-0.7c1.2,0.3,2.3,1.3,2.6,2.5c0.3,1.2-0.1,2.4-0.9,3.2   c-0.6,0.6-0.7,1.4-0.4,2.2c0.3,0.7,1,1.2,1.8,1.2h10.6V83.6z" style="fill: #64748B; fill-opacity: 1;"></path></svg> <svg xmlns="http://www.w3.org/2000/svg" y="307.6012382315957" viewBox="4 13 438.7200012207031 53.66999816894531" x="68.13999938964844" height="53.66999816894531" width="438.7200012207031" style="overflow: visible;"><g fill="#06B6D4" fill-opacity="1" style=""><path d="M16.89 57.22L16.89 57.22Q13.00 57.22 10.08 55.75Q7.17 54.28 5.58 51.58Q4.00 48.89 4.00 45.22L4.00 45.22L4.00 27.56Q4.00 23.83 5.58 21.17Q7.17 18.50 10.08 17.03Q13.00 15.56 16.89 15.56L16.89 15.56Q20.83 15.56 23.69 17.03Q26.56 18.50 28.17 21.17Q29.78 23.83 29.78 27.56L29.78 27.56L22.78 27.56Q22.78 24.67 21.25 23.17Q19.72 21.67 16.89 21.67L16.89 21.67Q14.06 21.67 12.50 23.17Q10.94 24.67 10.94 27.50L10.94 27.50L10.94 45.22Q10.94 48.06 12.50 49.58Q14.06 51.11 16.89 51.11L16.89 51.11Q19.72 51.11 21.25 49.58Q22.78 48.06 22.78 45.22L22.78 45.22L29.78 45.22Q29.78 48.83 28.17 51.56Q26.56 54.28 23.69 55.75Q20.83 57.22 16.89 57.22ZM51.11 57.17L51.11 57.17Q47.22 57.17 44.36 55.69Q41.50 54.22 39.92 51.53Q38.33 48.83 38.33 45.17L38.33 45.17L38.33 37.61Q38.33 33.94 39.92 31.25Q41.50 28.56 44.36 27.08Q47.22 25.61 51.11 25.61L51.11 25.61Q55.06 25.61 57.89 27.08Q60.72 28.56 62.31 31.25Q63.89 33.94 63.89 37.56L63.89 37.56L63.89 45.17Q63.89 48.83 62.31 51.53Q60.72 54.22 57.89 55.69Q55.06 57.17 51.11 57.17ZM51.11 51.11L51.11 51.11Q53.89 51.11 55.42 49.58Q56.94 48.06 56.94 45.17L56.94 45.17L56.94 37.61Q56.94 34.67 55.42 33.17Q53.89 31.67 51.11 31.67L51.11 31.67Q48.39 31.67 46.83 33.17Q45.28 34.67 45.28 37.61L45.28 37.61L45.28 45.17Q45.28 48.06 46.83 49.58Q48.39 51.11 51.11 51.11ZM77.89 56.67L71.78 56.67L71.78 26.11L77.44 26.11L77.44 30.22L78.61 30.22L77.67 31.22Q77.67 28.67 79.11 27.11Q80.56 25.56 82.83 25.56L82.83 25.56Q85.28 25.56 86.64 27.56Q88.00 29.56 88.00 32.94L88.00 32.94L86.78 30.22L88.67 30.22L87.94 31.22Q87.94 28.67 89.39 27.11Q90.83 25.56 93.22 25.56L93.22 25.56Q96.06 25.56 97.72 27.67Q99.39 29.78 99.39 33.39L99.39 33.39L99.39 56.67L93.28 56.67L93.28 33.67Q93.28 32.17 92.61 31.31Q91.94 30.44 90.67 30.44L90.67 30.44Q89.44 30.44 88.75 31.28Q88.06 32.11 88.06 33.67L88.06 33.67L88.06 56.67L83.06 56.67L83.06 33.67Q83.06 32.11 82.39 31.28Q81.72 30.44 80.44 30.44L80.44 30.44Q79.17 30.44 78.53 31.28Q77.89 32.11 77.89 33.67L77.89 33.67L77.89 56.67ZM114.56 66.67L107.61 66.67L107.61 26.11L114.39 26.11L114.39 31.94L115.94 31.94L114.39 33.56Q114.39 29.83 116.61 27.69Q118.83 25.56 122.61 25.56L122.61 25.56Q127.22 25.56 130.00 28.72Q132.78 31.89 132.78 37.22L132.78 37.22L132.78 45.50Q132.78 49.06 131.53 51.69Q130.28 54.33 128.00 55.78Q125.72 57.22 122.61 57.22L122.61 57.22Q118.83 57.22 116.61 55.08Q114.39 52.94 114.39 49.22L114.39 49.22L115.94 50.83L114.33 50.83L114.56 58.11L114.56 66.67ZM120.17 51.22L120.17 51.22Q122.83 51.22 124.33 49.67Q125.83 48.11 125.83 45.22L125.83 45.22L125.83 37.56Q125.83 34.67 124.33 33.11Q122.83 31.56 120.17 31.56L120.17 31.56Q117.56 31.56 116.06 33.14Q114.56 34.72 114.56 37.56L114.56 37.56L114.56 45.22Q114.56 48.06 116.06 49.64Q117.56 51.22 120.17 51.22ZM168.83 56.67L159.11 56.67Q156.11 56.67 153.86 55.44Q151.61 54.22 150.33 51.97Q149.06 49.72 149.06 46.78L149.06 46.78L149.06 22.39L139.28 22.39L139.28 16.11L156.00 16.11L156.00 46.78Q156.00 48.44 156.97 49.42Q157.94 50.39 159.61 50.39L159.61 50.39L168.83 50.39L168.83 56.67ZM188.94 57.22L188.94 57.22Q185.06 57.22 182.17 55.72Q179.28 54.22 177.69 51.53Q176.11 48.83 176.11 45.22L176.11 45.22L176.11 37.56Q176.11 33.94 177.69 31.25Q179.28 28.56 182.17 27.06Q185.06 25.56 188.94 25.56L188.94 25.56Q192.78 25.56 195.64 27.06Q198.50 28.56 200.08 31.25Q201.67 33.94 201.67 37.56L201.67 37.56L201.67 43.06L182.83 43.06L182.83 45.22Q182.83 48.44 184.39 50.08Q185.94 51.72 189.00 51.72L189.00 51.72Q191.33 51.72 192.78 50.92Q194.22 50.11 194.61 48.56L194.61 48.56L201.44 48.56Q200.67 52.50 197.25 54.86Q193.83 57.22 188.94 57.22ZM195.44 38.61L194.94 39.17L194.94 37.50Q194.94 34.33 193.44 32.64Q191.94 30.94 188.94 30.94L188.94 30.94Q185.94 30.94 184.39 32.67Q182.83 34.39 182.83 37.56L182.83 37.56L182.83 38.72L195.44 38.61ZM235.50 56.67L226.67 56.67Q222.28 56.67 219.81 54.22Q217.33 51.78 217.33 47.50L217.33 47.50L217.33 32.39L209.06 32.39L209.06 26.11L217.33 26.11L217.33 17.50L224.33 17.50L224.33 26.11L236.06 26.11L236.06 32.39L224.33 32.39L224.33 47.50Q224.33 50.39 227.17 50.39L227.17 50.39L235.50 50.39L235.50 56.67ZM272.11 56.67L245.33 56.67L245.33 50.33L256.00 50.33L256.00 32.39L246.72 32.39L246.72 26.11L262.67 26.11L262.67 50.33L272.11 50.33L272.11 56.67ZM258.78 21.00L258.78 21.00Q256.67 21.00 255.44 19.92Q254.22 18.83 254.22 17.00L254.22 17.00Q254.22 15.17 255.44 14.08Q256.67 13.00 258.78 13.00L258.78 13.00Q260.89 13.00 262.11 14.08Q263.33 15.17 263.33 17.00L263.33 17.00Q263.33 18.83 262.11 19.92Q260.89 21.00 258.78 21.00ZM292.22 57.17L292.22 57.17Q288.33 57.17 285.47 55.69Q282.61 54.22 281.03 51.53Q279.44 48.83 279.44 45.17L279.44 45.17L279.44 37.61Q279.44 33.94 281.03 31.25Q282.61 28.56 285.47 27.08Q288.33 25.61 292.22 25.61L292.22 25.61Q296.17 25.61 299.00 27.08Q301.83 28.56 303.42 31.25Q305.00 33.94 305.00 37.56L305.00 37.56L305.00 45.17Q305.00 48.83 303.42 51.53Q301.83 54.22 299.00 55.69Q296.17 57.17 292.22 57.17ZM292.22 51.11L292.22 51.11Q295.00 51.11 296.53 49.58Q298.06 48.06 298.06 45.17L298.06 45.17L298.06 37.61Q298.06 34.67 296.53 33.17Q295.00 31.67 292.22 31.67L292.22 31.67Q289.50 31.67 287.94 33.17Q286.39 34.67 286.39 37.61L286.39 37.61L286.39 45.17Q286.39 48.06 287.94 49.58Q289.50 51.11 292.22 51.11ZM321.22 56.67L314.28 56.67L314.28 26.11L321.06 26.11L321.06 31.94L322.94 31.94L321.06 33.56Q321.06 29.78 323.25 27.67Q325.44 25.56 329.28 25.56L329.28 25.56Q333.78 25.56 336.47 28.56Q339.17 31.56 339.17 36.61L339.17 36.61L339.17 56.67L332.22 56.67L332.22 37.33Q332.22 34.56 330.78 33.06Q329.33 31.56 326.72 31.56L326.72 31.56Q324.17 31.56 322.69 33.11Q321.22 34.67 321.22 37.56L321.22 37.56L321.22 56.67ZM355.61 56.67L348.67 56.67L348.67 16.11L355.61 16.11L355.61 32.50L360.44 32.50L368.06 16.11L375.61 16.11L366.56 35.56L376.06 56.67L368.33 56.67L360.33 38.83L355.61 38.83L355.61 56.67ZM409.89 56.67L383.11 56.67L383.11 50.33L393.78 50.33L393.78 32.39L384.50 32.39L384.50 26.11L400.44 26.11L400.44 50.33L409.89 50.33L409.89 56.67ZM396.56 21.00L396.56 21.00Q394.44 21.00 393.22 19.92Q392.00 18.83 392.00 17.00L392.00 17.00Q392.00 15.17 393.22 14.08Q394.44 13.00 396.56 13.00L396.56 13.00Q398.67 13.00 399.89 14.08Q401.11 15.17 401.11 17.00L401.11 17.00Q401.11 18.83 399.89 19.92Q398.67 21.00 396.56 21.00ZM442.17 56.67L433.33 56.67Q428.94 56.67 426.47 54.22Q424.00 51.78 424.00 47.50L424.00 47.50L424.00 32.39L415.72 32.39L415.72 26.11L424.00 26.11L424.00 17.50L431.00 17.50L431.00 26.11L442.72 26.11L442.72 32.39L431.00 32.39L431.00 47.50Q431.00 50.39 433.83 50.39L433.83 50.39L442.17 50.39L442.17 56.67Z" transform="translate(0, 0)"></path></g></svg></svg>